<svg id="Layer_1" data-name="Layer 1" xmlns="http://www.w3.org/2000/svg" viewBox="0 0 750.99 751.93"><defs><style>.cls-1{fill:#fff;}</style></defs><path class="cls-1" d="M128.1,666.93q-21.4,4.82-42.68,10.14c-10.15,2.58-16.83-2.15-16.83-13.83V484.56C68.2,474.43,75.26,466,85.7,466.32h43.19a18.14,18.14,0,0,1,17.9,18q-.39,80.43-.76,160.84A23.75,23.75,0,0,1,128.1,666.93Zm-7.4-179.17-25.62.64c-3.28.09-4.6,2.06-4.61,6.23l-.25,152.93c0,4.16,1.29,5.81,4.54,5.09,10.14-2.24,15.21-3.31,25.38-5.37,2-.4,4.14-3,4.15-6.44q.28-73.79.55-147.57C124.86,489.8,122.68,487.72,120.7,487.76Z" transform="translate(-27.01 -15.21)"/><path class="cls-1" d="M247.83,629.79c-.51,9.81-8.62,17.45-18.12,18.85q-21.65,3.14-43.18,6.78c-10.28,1.79-17-2.78-16.95-13.21q.42-77.76.86-155.53c0-7.38-9.35-14.45-9.33-17.79,0-1.8.89-2.57,2.42-2.57h36a2.14,2.14,0,0,1,2.39,2.47c0,3.22-9.49,10.25-9.53,17.48q-.44,71.44-.86,142.89c0,3.74,1.28,5.28,4.56,4.79,10.25-1.52,15.38-2.24,25.65-3.59,2-.26,4.18-2.48,4.2-5.63l.87-139c.05-7-9.34-13.77-9.32-16.94a2.15,2.15,0,0,1,2.43-2.44h36a2.1,2.1,0,0,1,2.4,2.37c0,3.07-9.49,9.78-9.53,16.69Q248.27,557.59,247.83,629.79Z" transform="translate(-27.01 -15.21)"/><path class="cls-1" d="M330.4,468.6c6.36,0,15.8-2.28,18.65-2.28,1.53,0,2.19.9,2.18,2.49l-.08,28.52c0,1.59-.67,2.5-2.21,2.51s-2.85-2-8.31-8.54c-3.5-4.29-9-4.71-18-4.63a3.84,3.84,0,0,0-3.75,3.92q-.3,65.15-.58,130.3c0,6.64,9.43,12.41,9.42,15.38,0,1.6-.89,2.34-2.44,2.44q-18.1,1.23-36.19,2.94c-1.54.15-2.42-.46-2.41-2.09,0-3,9.53-10.36,9.57-17.07q.33-65.82.68-131.65a3.74,3.74,0,0,0-3.71-3.89c-9,.1-14.49.62-18,5.13-5.53,6.88-6.86,9-8.39,9.08s-2.19-.9-2.18-2.55q.09-14.85.17-29.7c0-1.65.68-2.59,2.21-2.59,2.85,0,12.27,2.34,18.63,2.33Z" transform="translate(-27.01 -15.21)"/><path class="cls-1" d="M448.21,621.7c0,9.21-6.83,14.19-17.23,14.07q-35.09-.27-70.11,1c-1.55.06-2.43-.58-2.42-2.16,0-2.94,9.52-9.61,9.54-16.15q.15-67.07.31-134.13c0-6.54-9.4-12.84-9.39-15.77,0-1.58.88-2.26,2.42-2.26h66.44c11.46-.73,20.94,6.62,20.21,18.66ZM426,491.22c0-5.16-1.76-7-6.8-7-10.1,0-15.15,0-25.25,0-2,0-3.73,1.81-3.73,4.5q-.09,62.79-.16,125.57c0,2.25,1.32,3.57,3.31,3.54,10.34-.15,15.51-.18,25.85-.15,4.64,0,6.85-2.43,6.85-7.15Q426.07,550.91,426,491.22Z" transform="translate(-27.01 -15.21)"/><path class="cls-1" d="M528.86,640.52q-21.74-1.75-43.49-3c-10.39-.55-17.26-6-17.28-15.24q-.18-70.75-.37-141.52c0-9.25,6.76-14.44,17.07-14.44H528c11.4,0,18,8.62,18.07,16.07q.39,71.86.79,143.73C546.9,633.57,540.33,641.5,528.86,640.52ZM520,484.7l-25.67-.19c-3.3,0-4.61,1.57-4.6,5l.45,125.14c0,3.41,1.35,5.06,4.66,5.24,10.33.55,15.49.87,25.81,1.6,2,.14,4.18-1.54,4.17-4.53l-.63-127.35A4.62,4.62,0,0,0,520,484.7Z" transform="translate(-27.01 -15.21)"/><path class="cls-1" d="M629.35,653q-21.58-3.41-43.23-6.3c-10.33-1.33-17.19-7.53-17.25-17.2q-.43-74-.88-148c-.06-9.68,6.7-15.11,17-15.11h43.2a17.79,17.79,0,0,1,18.08,17.33q.47,77.51.91,155C647.24,646.7,640.74,654.8,629.35,653Zm-9.14-167c-10.26-.17-15.4-.25-25.66-.4-3.29-.05-4.6,1.61-4.57,5.21q.4,66,.82,132.07c0,3.59,1.35,5.43,4.65,5.83,10.28,1.25,15.41,1.92,25.67,3.35,2,.28,4.15-1.38,4.13-4.58l-.84-136.24C624.39,488,622.18,486,620.21,486Z" transform="translate(-27.01 -15.21)"/><path class="cls-1" d="M662.57,656.23c0-3.31,9.33-8.76,9.29-16.23q-.4-76.54-.8-153.1c0-7.46-9.5-14.72-9.52-18,0-1.79.86-2.55,2.4-2.55h67.32c13.27,0,21.28,10.29,20.19,23.35l0,68.93c0,6.47-2.38,10.13-6.08,13.29-5.74,4.41-8.6,6.57-14.34,10.85C737.66,608.4,742.94,635.06,752,660c5,11,9.93,14.93,9.93,18.63,0,2-.86,2.62-2.37,2.22q-17.33-4.64-34.79-8.79a3,3,0,0,1-2.39-3.28c0-3.53,4.75-4.07,4.74-8.72a48.75,48.75,0,0,0-1.1-5.7c-4.5-19.82-10.31-39.35-16-58.84-5.56,3.7-8.34,5.52-13.9,9.12-2,1.29-2.6,3.56-2.59,6.46l.15,32.9c0,7.63,9.41,17,9.42,20.42,0,1.86-.85,2.47-2.38,2.14q-17.81-3.9-35.72-7.31A2.74,2.74,0,0,1,662.57,656.23ZM693,492.64l.35,80.28c0,1.84.66,3,1.54,3.07,1.09.13,3.05-1.22,3.05-1.22q12.62-8.5,25-17.33c4.78-3.85,6.74-7,6.73-11.62l-.12-49.07c0-6.31-1.77-8.55-6.81-8.67-10.42-.26-15.63-.38-26.06-.62C694.73,487.41,693,489.48,693,492.64Z" transform="translate(-27.01 -15.21)"/><path class="cls-1" d="M245.65,685.81c.82-.09,1.07.11,1.12.63s-1.56,3.56-1.4,5c.21,1.93,14.5,40.43,15.14,42.09,1.39,3.69,4.69,5.59,4.76,6.26s-.21.77-1,.86l-11.61,1.29c-.6.07-1.21,0-1.28-.61s2.5-3.29,2.39-4.33-3.48-9.56-3.8-10.43c-.2-.43-.36-.56-.73-.52a4.25,4.25,0,0,0-1.44.68l-11.86,8.48c-.63.44-1,.71-.91,1.3l.13,1.19c.25,2.31,3.31,4.76,3.35,5.06.05.52-.15.77-1,.86L225.23,745c-.52.06-.84-.13-.9-.65-.08-.75,2.63-3.46,3-5.68s5.92-44.44,5.77-45.85-2.4-4-2.47-4.55.14-.77,1-.86Zm-5.19,13s-.21-.51-.65-.46-.47.58-.47.58l-2.84,26.69c0,.22.12.36.27.34a.94.94,0,0,0,.35-.19c2-1.42,7.84-5.46,9.5-6.78.27-.25.4-.42.37-.71a7.35,7.35,0,0,0-.23-.73Z" transform="translate(-27.01 -15.21)"/><path class="cls-1" d="M297.81,733c.26,3.06-1.91,5-5.42,5.26l-23.66,2c-.52,0-.84-.16-.88-.68-.08-1,2.95-3.32,2.78-5.49L267,689.69c-.18-2.17-3.56-4-3.64-5-.05-.52.23-.77.76-.82L286.68,682c4.48-.37,7,1.3,7.38,5.63Zm-11-42.67c-.14-1.71-.79-2.26-2.51-2.12l-8.58.71a1.38,1.38,0,0,0-1.14,1.6L278,732.28a1.08,1.08,0,0,0,1.22,1.1l8.73-.72a2.09,2.09,0,0,0,2.12-2.58Z" transform="translate(-27.01 -15.21)"/><path class="cls-1" d="M325.46,685.85c0-.15.06-.22.05-.37-.1-1.8-2.87-4.42-2.91-5s.26-.76.78-.79l12.49-.71c.52,0,.84.18.87.71.05,1-2.71,2.62-3.28,5.73l-8.57,44.81a2,2,0,0,0,0,.68c.1,1.87,2,3.57,2.05,4.46,0,.53-.26.77-.78.8l-12.26.69c-.53,0-.84-.18-.87-.7-.05-.9,1.64-2.8,1.54-4.66a2.2,2.2,0,0,0-.12-.67l-13.56-43.56c-.92-3-3.85-4.36-3.9-5.33,0-.53.26-.77.78-.8l12.41-.7c.52,0,.84.18.87.7s-2.43,3.51-2.33,5.31c0,.15.09.22.1.37,1.29,4.35,9.94,33.86,9.94,33.86s.17.44.4.43.34-.47.34-.47S324.66,690.32,325.46,685.85Z" transform="translate(-27.01 -15.21)"/><path class="cls-1" d="M362.17,685.67a1.37,1.37,0,0,0-1.32-1.46l-8.83.26c-.67,0-1,.41-1,1.23l.68,22.61,9.33-6a3.93,3.93,0,0,1,1.55-.8c.45,0,.69.43.7,1l.18,6c0,.9-.48,1.29-1.51,2l-10,6.44.33,11a1.09,1.09,0,0,0,1.16,1.16l8.61-.26a1.5,1.5,0,0,0,1.37-1.61l-.14-4.94c0-1.28.17-1.81.68-2.2,0,0,4.92-3.37,5.67-3.39s1,.35,1,1l.44,14.75c0,1.34-.61,2.11-2.18,2.16l-26.28.79c-.52,0-.83-.2-.84-.73,0-1,3.13-3.16,3.06-5.33l-1.33-44.54c-.07-2.18-3.35-4.17-3.38-5.15,0-.52.28-.76.8-.77l26.2-.79c1.65,0,2.34.68,2.38,1.73l.25,8.46c0,1.27-.17,1.8-.68,2.19,0,0-4.91,3.75-5.66,3.77s-1-.35-1-1Z" transform="translate(-27.01 -15.21)"/><path class="cls-1" d="M404.48,734.25c-1.13,0-1.65-.74-2.48-2.24l-16.06-33.35c-.38-.75-.46-1-.83-1s-.37.23-.37.83l.09,29.8c0,2.17,3.24,4.26,3.24,5.23,0,.53-.3.75-.82.75l-11.91,0c-.52,0-.82-.22-.82-.74,0-1,3.21-3.08,3.2-5.26l-.15-44.55c0-2.18-3.23-4.26-3.23-5.24,0-.52.29-.75.82-.75l8.54,0c1.12,0,1.8.75,2.47,2.24l16.52,36.12c.15.3.31.6.53.6s.22-.45.22-.45l-.1-32.58c0-2.17-3.24-4.26-3.24-5.23,0-.52.3-.75.82-.75l11.91,0c.52,0,.82.22.82.75,0,1-3.21,3.08-3.2,5.25l.16,49.05a1.31,1.31,0,0,1-1.42,1.5Z" transform="translate(-27.01 -15.21)"/><path class="cls-1" d="M439.41,679c2.17.05,5.41-.62,6.38-.6.53,0,.74.31.73.84l-.22,9.43c0,.53-.24.82-.76.81s-1-.7-2.78-2.91c-1.17-1.45-3-1.64-6.11-1.72a1.27,1.27,0,0,0-1.3,1.25l-1,42.6c-.05,2.17,3.12,4.34,3.1,5.32,0,.52-.32.74-.84.73l-12.28-.29c-.52,0-.82-.24-.81-.76,0-1,3.29-3,3.34-5.17l1-42.6a1.26,1.26,0,0,0-1.24-1.31c-3.07-.07-4.95,0-6.18,1.43-1.92,2.13-2.38,2.8-2.91,2.78s-.74-.31-.73-.84l.22-9.43c0-.52.24-.82.77-.81,1,0,4.17.85,6.35.9Z" transform="translate(-27.01 -15.21)"/><path class="cls-1" d="M477.34,731.27c-.11,2.4-2.49,5.06-6.38,4.88l-14.73-.69c-3.52-.17-5.76-2-5.61-5.07l2.14-45.7c.1-2.17-3-4.41-3-5.38,0-.53.34-.74.86-.71l12.27.57c.52,0,.81.26.79.79,0,1-3.37,2.91-3.47,5.08l-2,42.86c-.05,1.12.37,1.67,1.5,1.72l8.75.41a1.5,1.5,0,0,0,1.49-1.5l2-42.94c.1-2.17-3-4.41-3-5.38,0-.53.33-.74.85-.71l12.27.57c.52,0,.81.27.79.79-.05,1-3.36,2.92-3.46,5.09Z" transform="translate(-27.01 -15.21)"/><path class="cls-1" d="M482.64,736c.07-1,3.43-2.83,3.59-5l3.23-44.44c.16-2.16-2.9-4.49-2.83-5.46,0-.52.35-.72.88-.69l22.93,1.67c4.48.33,6.73,2.37,6.42,6.7l-1.33,18.3a4.46,4.46,0,0,1-2.36,3.58L508,713.71c2.15,8.57,5,19,5.73,20.24,1.53,2.74,3.2,3.54,3.13,4.51,0,.52-.35.72-.88.68l-12-.87c-.53,0-.81-.28-.77-.81.07-1,1.75-1.3,1.84-2.57a10.44,10.44,0,0,0-.27-1.52c-.72-3.43-2.58-10-4.33-15.86l-5,2.79a2.14,2.14,0,0,0-1,1.88l-.68,9.34c-.16,2.16,2.9,4.49,2.83,5.46,0,.52-.35.73-.87.69l-12.25-.89C482.88,736.74,482.6,736.49,482.64,736Zm14.18-47.4-1.65,22.78c0,.52.16.84.46.86a2.81,2.81,0,0,0,1.08-.37l9-5c1.73-1.07,2.46-1.92,2.55-3.19l1-13.37c.12-1.72-.43-2.36-2.15-2.49l-8.89-.64A1.37,1.37,0,0,0,496.82,688.57Z" transform="translate(-27.01 -15.21)"/><path class="cls-1" d="M545.54,692.73a1.38,1.38,0,0,0-1.12-1.62l-8.8-.86c-.67-.06-1.08.27-1.16,1.09l-2.2,22.51,10-4.81a3.94,3.94,0,0,1,1.64-.59c.44,0,.62.51.57,1l-.58,6c-.09.89-.65,1.21-1.76,1.78l-10.73,5.12-1.07,11a1.08,1.08,0,0,0,1,1.3l8.57.84A1.51,1.51,0,0,0,541.5,734l.48-4.92c.13-1.26.4-1.76,1-2.08,0,0,5.31-2.72,6-2.65s.93.47.87,1.14l-1.44,14.68c-.13,1.35-.87,2-2.44,1.87l-26.16-2.56c-.52,0-.8-.3-.75-.82.1-1,3.51-2.75,3.72-4.91l4.34-44.35c.21-2.16-2.79-4.56-2.7-5.53.05-.52.37-.72.89-.66l26.09,2.55c1.64.16,2.24,1,2.14,2l-.83,8.43c-.12,1.26-.39,1.76-1,2.08,0,0-5.35,3.09-6.09,3s-.93-.47-.87-1.14Z" transform="translate(-27.01 -15.21)"/><path class="cls-1" d="M564.56,704.32a4.08,4.08,0,0,0,1.49,3.87l11.35,10.42c2.1,1.91,2.92,3.3,2.59,6L578,741c-.37,3-2.88,4.49-6.38,4.07l-13.16-1.59c-3.86-.47-5.76-3.49-5.48-5.87l1.71-14.2c.08-.67.43-1,1.1-.92s5.29,4.26,5.29,4.26c.48.43.64,1,.48,2.24l-.85,7.14a1.5,1.5,0,0,0,1.22,1.73l7.21.87c1.12.14,1.63-.33,1.76-1.45l1.27-10.55a4,4,0,0,0-1.44-3.65l-11.21-10.33c-2-1.82-3.15-3.24-2.82-6l1.85-15.39c.37-3,2.88-4.49,6.38-4.07l13.16,1.59c3.86.47,5.76,3.49,5.48,5.87l-1.44,12c-.09.67-.43,1-1.1.92s-5.29-4.26-5.29-4.26c-.48-.43-.64-1-.49-2.24l.6-4.91a1.42,1.42,0,0,0-1.23-1.73l-7.21-.87c-1.12-.14-1.63.33-1.76,1.45Z" transform="translate(-27.01 -15.21)"/><path class="cls-1" d="M387.91,371.93c-4.26.76-2.63-1.11-6.82-2.21,1.06,4.9.61,10.25-.18,15.64-.92,6.28-2.31,12.62-2.44,18.44-.05,2.12-.18,4.23-.26,6.35,0,.55,0,1.1-.07,1.65-.13,2.74-.27,5.48-.46,8.22q-.6,8.52-1.62,17A79.92,79.92,0,0,0,387,438c-.5-6-1.16-12.12-.52-18.2a2,2,0,0,1,0-.24c.12-1.07.3-2.14.48-3.2.27-1.62.58-3.24.94-4.85.71-3.26,1.5-6.52,2-9.81a67.61,67.61,0,0,0-2.06-29.8Z" transform="translate(-27.01 -15.21)"/><path class="cls-1" d="M765.32,422.57c-3.84-1.24-7.71-2.34-11.56-3.49l-25.94-20.15c7.29-1.48,17.54-7.65,24.84-9.14a128.88,128.88,0,0,0-29.18-15.74c6.49-3.8,17.16-8.23,24.62-7.3A159.87,159.87,0,0,1,708.87,343c7.36.12,16.24-2,23.6-1.91-13-11.18-19.69-14.06-27.12-29.53,7.26-1.63,22.91,3.79,34.87,3.64-10.2-7.62-37.75-39.44-48-47.05-.38-.28-.8-.68-.68-1.14s.74-.6,1.23-.63l16.89-1c-.9-1.94-4.16-6.08-5-8.06A28.32,28.32,0,0,0,689.16,242c2.45-.14,10.23-2.61,12.68-2.75-2.7-6.59-7.82-11.84-11.72-17.8S679.59,205.5,682.41,199a110.09,110.09,0,0,1-30.56,45l16.22-4.62a250.5,250.5,0,0,0-18.34,21.18C631.87,243.67,601.47,209.33,589,200c-.54-.41-1.15-1-1-1.64s1.07-.87,1.78-.91L614.07,196c-1.3-2.79-6-8.74-7.16-11.58a40.67,40.67,0,0,0-22.36-22c3.52-.2,14.69-3.75,18.21-3.94-3.87-9.48-11.23-17-16.84-25.59s-15.12-22.9-11.07-32.3A158.21,158.21,0,0,1,531,165.23l23.3-6.63c-15.49,15.6-29.73,34.6-43.07,52.07l33.39-5.82a195.3,195.3,0,0,1-19.8,24.89c-22.39-18.71-69.86-71.36-88.25-84.66-.73-.53-1.55-1.28-1.32-2.14s1.43-1.13,2.4-1.19l32.68-1.94c-1.75-3.64-8.06-11.4-9.65-15.12A54,54,0,0,0,430.51,96c4.74-.26,19.79-4.9,24.54-5.16-5.22-12.37-15.14-22.23-22.7-33.41S412,27.49,417.44,15.21A206.54,206.54,0,0,1,358.3,99.63L389.69,91c-20.87,20.37-40.05,45.18-58,68l45-7.6C355,183,325,210.21,291.69,231.2a197.06,197.06,0,0,1-21.17-26.35l33.38,5.82c-13.34-17.47-27.57-36.47-43.06-52.07l23.3,6.63a158.21,158.21,0,0,1-43.9-64.64c4,9.4-5.47,23.74-11.07,32.3s-13,16.11-16.85,25.59c3.52.19,14.7,3.74,18.22,3.94a40.69,40.69,0,0,0-22.37,22c-1.17,2.84-5.86,8.79-7.15,11.58l24.26,1.48c.71,0,1.59.22,1.77.91s-.43,1.23-1,1.64c-12.46,9.29-42.87,43.63-60.73,60.47A248.71,248.71,0,0,0,147,239.33L163.23,244a110.16,110.16,0,0,1-30.55-45c2.82,6.55-3.81,16.53-7.71,22.49s-9,11.21-11.72,17.8c2.45.14,10.22,2.61,12.68,2.75a28.32,28.32,0,0,0-15.57,15.32c-.82,2-4.08,6.12-5,8.06l16.88,1c.5,0,1.11.15,1.24.63s-.3.86-.68,1.14c-10.21,7.61-37.75,39.43-48,47.05,12,.15,27.62-5.27,34.87-3.64-7.42,15.47-14.1,18.35-27.12,29.53,7.36-.12,16.24,2,23.6,1.91A159.81,159.81,0,0,1,67,366.75c7.46-.93,18.13,3.5,24.62,7.3a128.88,128.88,0,0,0-29.18,15.74c7.29,1.49,17.54,7.66,24.84,9.14l-3.42,2.66c-.67.23-1.39.38-2,.64-8.53,3.46-16.1,10.11-23.49,15.41S35.8,438.87,27,440.07L100.89,430l1.74,13.4c36-18,84.92,9.66,118.05-11.61l.41,0a13.15,13.15,0,0,0-4,12.08c47.72,13.87,98.53-13.65,147.72-8.43.09-5.14.06-10.3,0-15.47,0-2.37,0-4.73,0-7.11-.08-4.25-.24-8.49-.38-12.74-.18-4.94-.34-9.86-.57-14.78-.08-1.68-.17-3.34-.25-5l-.42-8.25c-.09-1.66-.16-3.34-.26-5-.36-6.75-3.41-12.63-6.46-18.53-2.76-5.35-5.52-10.72-6.27-16.8-.08-.62-.06-1.24-.1-1.86-.43-6.21.69-12.46,1.89-18.59,1.35-6.89,2.73-13.87,5.82-20.17,4.44-9.07,12.12-16.14,20.24-22.14a79,79,0,0,0,9.12-7.27,19.52,19.52,0,0,1-14.77-11.72,38.75,38.75,0,0,1,10.83-1.17,143.51,143.51,0,0,1-15.56-5.49c-7.35-3.18-14.36-7.35-20-13-1.94-2-3.74-4.13-6.07-5.62-1.56-1-3.35-1.68-4.67-3a2.07,2.07,0,0,1-.78-1.89c.32-1.17,2-1.15,3.14-.87l8.35,1.93a138.19,138.19,0,0,1,.18-23.46,7.34,7.34,0,0,1,1.19-4c.88-1.1,2.71-1.57,3.71-.57.79.78.75,2,.65,3.14q-.48,5.61-.95,11.21a40.07,40.07,0,0,1,5-9,13.59,13.59,0,0,1,8.59-5.28,2.18,2.18,0,0,1,1.92.45,1.65,1.65,0,0,1,0,1.89,5.41,5.41,0,0,1-1.44,1.38,45.67,45.67,0,0,0-7.29,6.81,1.8,1.8,0,0,0-.61,1.64c.33.89,1.63.7,2.51.34l7.14-2.9a4.87,4.87,0,0,1,2.41-.52,1.66,1.66,0,0,1,1.53,1.65c-.1.85-1,1.32-1.84,1.61-4.93,1.73-10.68,2.5-14,6.55a9.88,9.88,0,0,0,6.33,16c.52-1.08-.08-2.33-.53-3.43s-.69-2.59.25-3.32,2.39-.07,3,1a8.44,8.44,0,0,1,.71,3.44,16.39,16.39,0,0,0,11.69,13.84,7.28,7.28,0,0,0,.05-6.51,5.25,5.25,0,0,1-.73-1.79c-.06-.65.38-1.4,1-1.39a1.57,1.57,0,0,1,1,.61c2.46,2.54,3.76,6,5.22,9.18s3.32,6.51,6.4,8.26c1.23.71,2.62,1.13,3.87,1.81a6.54,6.54,0,0,1,1.87,1.52,26.44,26.44,0,0,1,8.92,2.15c2.42-1.84,4-4.74,5.25-7.66,1.38-3.22,2.6-6.64,4.91-9.18a1.49,1.49,0,0,1,1-.61c.62,0,1,.74,1,1.39a5.48,5.48,0,0,1-.68,1.8,7.66,7.66,0,0,0,0,6.5c5.83-1.69,10.4-7.45,11-13.84a8.93,8.93,0,0,1,.66-3.44c.55-1,1.92-1.68,2.8-1s.67,2.21.24,3.32-1,2.35-.5,3.43a9.59,9.59,0,0,0,7.39-6.16,10.59,10.59,0,0,0-1.43-9.87c-3.11-4-8.51-4.82-13.15-6.55-.77-.29-1.64-.76-1.74-1.61a1.64,1.64,0,0,1,1.45-1.65,4.34,4.34,0,0,1,2.26.52l6.72,2.9c.82.36,2.05.55,2.35-.34a1.82,1.82,0,0,0-.57-1.64,44.55,44.55,0,0,0-6.85-6.81,5.25,5.25,0,0,1-1.36-1.38,1.75,1.75,0,0,1,0-1.89,2,2,0,0,1,1.8-.45c3.22.43,6.05,2.6,8.08,5.28a41.32,41.32,0,0,1,4.72,9L440,202.1c-.09-1.1-.13-2.36.61-3.14.94-1,2.66-.53,3.48.57a7.67,7.67,0,0,1,1.13,4,145.84,145.84,0,0,1,.16,23.46l7.85-1.94c1.11-.27,2.66-.29,3,.88a2.16,2.16,0,0,1-.73,1.9c-1.25,1.29-2.93,2-4.39,3-2.19,1.49-3.89,3.66-5.71,5.62a58.87,58.87,0,0,1-18.8,13.05,139.47,139.47,0,0,1-16.64,6.14c.53.37,1.11.66,1.62,1.07,2.68,2.14,4.91,4.78,7.5,7s5.68,4.15,9.1,4.36c2.09.13,4.66-.2,5.85,1.54,1,1.46.3,3.44-.43,5.06-1.24,2.75-2.65,5.68-5.29,7.12a13.07,13.07,0,0,1-5.57,1.24c-3.6.22-7.26.27-10.72,1.29s-6.78,3.21-8.18,6.53c-1.93,4.6-3.05,10.2-.93,14.71,1.71,3.64,5.42,6,9.3,7.08s8,1,12,1c10.48,0,21,.21,31.3,2.16a73,73,0,0,1,22.72,8.12,53.69,53.69,0,0,1,6,3.93,46,46,0,0,1,13.18,15.67c.07.15.14.31.22.46a37.41,37.41,0,0,1,3.27,9.67,9.76,9.76,0,0,1,.06,4.2,4,4,0,0,1-2.76,3c-2,.45-3.91-1.28-5-3.08s-1.8-3.9-3.5-5.12c2.15,7.07.5,14.51-.6,21.82a56.22,56.22,0,0,0-.73,11.58,22.64,22.64,0,0,0,2.78,10.07c3.09,5.36,8.68,8.76,12.57,13.57a26.62,26.62,0,0,1,1.71,2.61,40.23,40.23,0,0,1,5.55,17.24c0,.25.08.49.1.73.59,6.1.41,12.24.53,18.36a376.77,376.77,0,0,0,50.27-2.24c-.48-3.79,16-.33,15.51-4.13,67,2.59,117.12-2.08,184.16.5,6.6.26,15.26-1,16.39-7.54S771.51,424.56,765.32,422.57Z" transform="translate(-27.01 -15.21)"/><path class="cls-1" d="M497.17,426.76a13.69,13.69,0,0,0-1.55-3.05c-2.46-3.53-6.49-5.35-10.49-7.13-1-.46-2.09-.92-3.09-1.41a46.13,46.13,0,0,1-20.65-20A49.06,49.06,0,0,0,471.12,410c1.82,1.79,3.93,3.72,4.09,6.27a5.21,5.21,0,0,1-.24,1.81,12,12,0,0,1-2.15,3.78l-1.12,1.44c-4.75,6.19-6.78,13.92-9.73,21.17,12.33,1.86,24.75,3.07,37.21,3.72q-.29-5.91-.55-11.81A32.66,32.66,0,0,0,497.17,426.76Z" transform="translate(-27.01 -15.21)"/><path class="cls-1" d="M456.78,410.47c-3-2.7-6.2-5.31-9.11-8.15a45.85,45.85,0,0,1-4.4-4.84,25.18,25.18,0,0,1-5.21-12,16.73,16.73,0,0,1,.17-5.51,75.86,75.86,0,0,1-24.74-1.25c-.42,2.22-1,4.45-1.6,6.67-2.26,8.41-5.53,16.82-8.22,24.92l-.55,1.6c-2.05,6.06-4.27,12.08-5.75,18.31a65.91,65.91,0,0,0-1.17,6.57,15,15,0,0,0,8.08-5.72,377.13,377.13,0,0,0,47.22,11.54A109.63,109.63,0,0,0,460.21,426a19.73,19.73,0,0,0,1.67-6.24c0-.11,0-.22,0-.33a8.53,8.53,0,0,0-.26-2.41C460.94,414.35,458.85,412.31,456.78,410.47Z" transform="translate(-27.01 -15.21)"/><path class="cls-1" d="M90.59,763.21c28.32,12.42,121.63-8.61,121.63-8.61l6.05-75.35S70.71,710.55,59.78,711C59.78,711,62.27,750.79,90.59,763.21Zm53-41.12,4.84-9.81,4.84,9.81,10.83,1.57-7.83,7.64,1.85,10.78L148.45,737l-9.68,5.09,1.85-10.78-7.84-7.64Z" transform="translate(-27.01 -15.21)"/><path class="cls-1" d="M589.6,679.25l6,75.35s93.32,21,121.64,8.61S748.09,711,748.09,711C737.16,710.55,589.6,679.25,589.6,679.25Zm77.92,62.83L657.84,737l-9.69,5.09L650,731.3l-7.83-7.64L653,722.09l4.85-9.81,4.84,9.81,10.82,1.57-7.83,7.64Z" transform="translate(-27.01 -15.21)"/></svg>